<?xml version="1.0" encoding="UTF-8"?>
<!DOCTYPE svg PUBLIC "-//W3C//DTD SVG 1.1//EN" "http://www.w3.org/Graphics/SVG/1.1/DTD/svg11.dtd">
<svg xmlns="http://www.w3.org/2000/svg" version="1.1" width="2552px" height="1392px"
    style="shape-rendering:geometricPrecision; text-rendering:geometricPrecision; image-rendering:optimizeQuality; fill-rule:evenodd; clip-rule:evenodd"
    xmlns:xlink="http://www.w3.org/1999/xlink">
    <defs>
        <linearGradient id="grad1" x1="0%" y1="0%" x2="30%" y2="100%">
            <stop offset="0%" style="stop-color:rgb(0,128,0);stop-opacity:1" />
            <stop offset="100%" style="stop-color:rgb(0,128,0);stop-opacity:1" />
        </linearGradient>
    </defs>
    <g>
        <path style="opacity:1" fill="url(#grad1)"
            d="M 101.5,-0.5 C 343.167,-0.5 584.833,-0.5 826.5,-0.5C 881.352,9.51541 914.852,41.8487 927,96.5C 928.162,296.147 928.662,495.814 928.5,695.5C 928.662,894.855 928.162,1094.19 927,1293.5C 917.581,1340.25 890.414,1371.41 845.5,1387C 838.741,1388.72 832.075,1390.22 825.5,1391.5C 584.5,1391.5 343.5,1391.5 102.5,1391.5C 51.4133,1382.59 18.2466,1353.25 3,1303.5C 1.70294,1296.71 0.536274,1290.04 -0.5,1283.5C -0.5,891.5 -0.5,499.5 -0.5,107.5C 3.82658,65.683 24.1599,34.183 60.5,13C 73.5873,6.3593 87.2539,1.8593 101.5,-0.5 Z" />
    </g>
    <g>
        <path style="opacity:1" fill="url(#grad1)"
            d="M 1722.5,-0.5 C 1964.83,-0.5 2207.17,-0.5 2449.5,-0.5C 2506.04,10.3768 2540.04,44.0435 2551.5,100.5C 2551.5,497.167 2551.5,893.833 2551.5,1290.5C 2539.93,1347.4 2505.6,1381.07 2448.5,1391.5C 2206.83,1391.5 1965.17,1391.5 1723.5,1391.5C 1661.8,1382.98 1606.8,1359.14 1558.5,1320C 1552.67,1314.17 1546.83,1308.33 1541,1302.5C 1380.67,1127.5 1220.33,952.5 1060,777.5C 1031.1,738.957 1024.1,696.623 1039,650.5C 1044,637.521 1050.66,625.521 1059,614.5C 1219.33,439.5 1379.67,264.5 1540,89.5C 1577.15,51.6613 1621.31,25.1613 1672.5,10C 1689.05,5.25809 1705.72,1.75809 1722.5,-0.5 Z" />
    </g>
</svg>