<?xml version="1.0" standalone="no"?>
<svg xmlns:xlink="http://www.w3.org/1999/xlink" id="wave" style="transform:rotate(0deg); transition: 0.3s" viewBox="0 0 1440 300" version="1.1" xmlns="http://www.w3.org/2000/svg"><defs><linearGradient id="sw-gradient-0" x1="0" x2="0" y1="1" y2="0"><stop stop-color="rgba(54, 166, 78, 1)" offset="0%"/><stop stop-color="rgba(101.457, 205.231, 123.694, 1)" offset="100%"/></linearGradient></defs><path style="transform:translate(0, 0px); opacity:1" fill="url(#sw-gradient-0)" d="M0,180L60,150C120,120,240,60,360,60C480,60,600,120,720,125C840,130,960,80,1080,95C1200,110,1320,190,1440,200C1560,210,1680,150,1800,125C1920,100,2040,110,2160,135C2280,160,2400,200,2520,215C2640,230,2760,220,2880,185C3000,150,3120,90,3240,90C3360,90,3480,150,3600,145C3720,140,3840,70,3960,65C4080,60,4200,120,4320,155C4440,190,4560,200,4680,195C4800,190,4920,170,5040,135C5160,100,5280,50,5400,65C5520,80,5640,160,5760,190C5880,220,6000,200,6120,175C6240,150,6360,120,6480,120C6600,120,6720,150,6840,145C6960,140,7080,100,7200,110C7320,120,7440,180,7560,215C7680,250,7800,260,7920,235C8040,210,8160,150,8280,105C8400,60,8520,30,8580,15L8640,0L8640,300L8580,300C8520,300,8400,300,8280,300C8160,300,8040,300,7920,300C7800,300,7680,300,7560,300C7440,300,7320,300,7200,300C7080,300,6960,300,6840,300C6720,300,6600,300,6480,300C6360,300,6240,300,6120,300C6000,300,5880,300,5760,300C5640,300,5520,300,5400,300C5280,300,5160,300,5040,300C4920,300,4800,300,4680,300C4560,300,4440,300,4320,300C4200,300,4080,300,3960,300C3840,300,3720,300,3600,300C3480,300,3360,300,3240,300C3120,300,3000,300,2880,300C2760,300,2640,300,2520,300C2400,300,2280,300,2160,300C2040,300,1920,300,1800,300C1680,300,1560,300,1440,300C1320,300,1200,300,1080,300C960,300,840,300,720,300C600,300,480,300,360,300C240,300,120,300,60,300L0,300Z"/></svg>